# xmcd CD database file
#
# Track frame offsets:
#	150
#	17397
#	32961
#	50974
#	66200
#	76818
#	92518
#	109083
#	131410
#	151654
#	170702
#	190668
#	206140
#	220155
#	240988
#	257293
#	276445
#	286879
#	305310
#
# Disc length: 4308 seconds
#
# Revision: 0
# Processed by: cddbd v1.5.2PL0 Copyright (c) Steve Scherf et al.
# Submitted via: CDex 1.70beta2
#
DISCID=0010d213
DTITLE=Various Artist - Jazz Guitar Highlights 1
DYEAR=2001
DGENRE=Jazz
TTITLE0=Helmut Kagerer and Peter Bernstein - All the Chords I Know
TTITLE1=John Stowell and Bebo Ferra - Dreamsville
TTITLE2=Louis Stewart and Heiner Franz - It Could Happen To You
TTITLE3=Nicola Puglielli - In the Middle
TTITLE4=Louis Stewart - Blue Bossa
TTITLE5=Marcus Klossek - First Bird
TTITLE6=Heiner Franz - I Hear A Rhapsody
TTITLE7=John Stein - Ben J Man
TTITLE8=Fred Fried - This Over That
TTITLE9=Helmut Kagerer and Roman Schwaller - Samba for Bob
TTITLE10=Heiner Franz and Friends - Easy Living
TTITLE11=Helmut Nieberle and Cordes Sauvages - Lady G's Delight
TTITLE12=Thomas Brendgens - How My Heart Sings
TTITLE13=Lorenzo Petrocca Organ Trio - Love for Sale
TTITLE14=Niculescu, Sylvestre, Vidal, Azzola - Valse Tsigane
TTITLE15=Ray Walker and John Pisano - Pricilla's Blues
TTITLE16=Steve Rochinski - Powder Your Face With Sunshine
TTITLE17=Dieter Fischer - Caravan
TTITLE18=Louis Stewart and Heiner Franz - Chelsea Bridge
EXTD=YEAR: 2001
EXTT0=
EXTT1=
EXTT2=
EXTT3=
EXTT4=
EXTT5=
EXTT6=
EXTT7=
EXTT8=
EXTT9=
EXTT10=
EXTT11=
EXTT12=
EXTT13=
EXTT14=
EXTT15=
EXTT16=
EXTT17=
EXTT18=
PLAYORDER=
